<?xml version="1.0" encoding="UTF-8"?>
<svg width="64" height="64" viewBox="0 0 64 64" xmlns="http://www.w3.org/2000/svg">
  <!-- 背景圆形 -->
  <circle cx="32" cy="32" r="30" fill="#4A90E2" stroke="#2E5C8A" stroke-width="2"/>
  
  <!-- 文档图标 -->
  <rect x="18" y="12" width="24" height="32" rx="2" fill="white" stroke="#2E5C8A" stroke-width="1"/>
  <rect x="20" y="16" width="20" height="2" fill="#4A90E2"/>
  <rect x="20" y="20" width="16" height="1.5" fill="#7BB3F0"/>
  <rect x="20" y="23" width="18" height="1.5" fill="#7BB3F0"/>
  <rect x="20" y="26" width="14" height="1.5" fill="#7BB3F0"/>
  
  <!-- 脑部图标 -->
  <path d="M26 30 Q24 28 26 26 Q28 24 32 26 Q36 24 38 26 Q40 28 38 30 Q40 32 38 34 Q36 36 32 34 Q28 36 26 34 Q24 32 26 30 Z" 
        fill="#FF6B6B" stroke="#E55555" stroke-width="1"/>
  
  <!-- 齿轮图标（表示生成） -->
  <circle cx="48" cy="48" r="8" fill="#50C878" stroke="#3A9B5C" stroke-width="1"/>
  <circle cx="48" cy="48" r="4" fill="white"/>
  <rect x="46" y="40" width="4" height="4" fill="#50C878"/>
  <rect x="46" y="52" width="4" height="4" fill="#50C878"/>
  <rect x="40" y="46" width="4" height="4" fill="#50C878"/>
  <rect x="52" y="46" width="4" height="4" fill="#50C878"/>
</svg>